<?xml version="1.0" encoding="UTF-8" standalone="no"?>
<!-- Created with Inkscape (http://www.inkscape.org/) -->

<svg
   width="128"
   height="128"
   viewBox="0 0 33.866667 33.866667"
   version="1.1"
   id="svg5"
   inkscape:version="1.1 (c68e22c387, 2021-05-23)"
   sodipodi:docname="YouCodec.svg"
   xmlns:inkscape="http://www.inkscape.org/namespaces/inkscape"
   xmlns:sodipodi="http://sodipodi.sourceforge.net/DTD/sodipodi-0.dtd"
   xmlns="http://www.w3.org/2000/svg"
   xmlns:svg="http://www.w3.org/2000/svg">
  <sodipodi:namedview
     id="namedview7"
     pagecolor="#505050"
     bordercolor="#ffffff"
     borderopacity="1"
     inkscape:pageshadow="0"
     inkscape:pageopacity="0"
     inkscape:pagecheckerboard="1"
     inkscape:document-units="mm"
     showgrid="false"
     inkscape:snap-bbox="true"
     inkscape:bbox-paths="true"
     inkscape:bbox-nodes="true"
     inkscape:snap-bbox-edge-midpoints="true"
     inkscape:snap-bbox-midpoints="true"
     inkscape:object-paths="true"
     inkscape:snap-intersection-paths="true"
     inkscape:snap-smooth-nodes="true"
     inkscape:snap-midpoints="true"
     inkscape:snap-object-midpoints="false"
     inkscape:snap-center="false"
     inkscape:snap-text-baseline="false"
     inkscape:snap-page="true"
     inkscape:snap-others="true"
     inkscape:zoom="5.12"
     inkscape:cx="55.175781"
     inkscape:cy="62.792969"
     inkscape:window-width="1920"
     inkscape:window-height="1017"
     inkscape:window-x="1912"
     inkscape:window-y="-8"
     inkscape:window-maximized="1"
     inkscape:current-layer="layer1"
     units="px"
     width="128px" />
  <defs
     id="defs2" />
  <g
     inkscape:label="Layer 1"
     inkscape:groupmode="layer"
     id="layer1"
     style="display:inline">
    <path
       id="rect31"
       style="fill:none;fill-rule:evenodd;stroke-width:1.11285"
       d="M 0,0 H 33.866665 V 33.866665 H 0 Z"
       inkscape:export-filename="C:\Users\undecV\icon16.png"
       inkscape:export-xdpi="12.000001"
       inkscape:export-ydpi="12.000001" />
    <rect
       style="fill:#ffffff;fill-opacity:1;stroke-width:0.265042"
       id="rect27273"
       width="16.933332"
       height="33.866665"
       x="8.4666662"
       y="1.3877788e-17"
       inkscape:export-filename="C:\Users\undecV\icon16.png"
       inkscape:export-xdpi="12.000001"
       inkscape:export-ydpi="12.000001" />
    <path
       style="fill:#ffffff;fill-opacity:1;stroke-width:0.0707443"
       d="m 0.04965732,12.665236 c 0.070506,-4.3334142 0.2361577,-7.5781278 0.4484721,-8.7846427 0.3136928,-1.782609 1.19294728,-2.88521995 2.62783688,-3.29537595 2.714966,-0.776063 6.8400637,-0.780605 10.5346867,-0.01161 1.109065,0.230842 1.757385,0.72033595 2.257345,1.70435095 0.45112,0.887884 0.575561,1.477846 0.717601,3.4020229 0.47081,6.3781178 0.362209,21.2507688 -0.177541,24.3126938 -0.28442,1.613447 -1.10493,2.76311 -2.269195,3.179473 -2.491073,0.890856 -7.4194033,0.929681 -11.1214632,0.08761 -1.4179865,-0.322533 -2.37042178,-1.644281 -2.62560918,-3.643704 -0.2036034,-1.595245 -0.3165335,-4.120366 -0.3948859,-8.829567 -0.063049,-3.789564 -0.062955,-4.083029 0.00282,-8.12126 z"
       id="path13331-7"
       inkscape:transform-center-x="-8.7044924"
       inkscape:transform-center-y="-4.6760749"
       inkscape:export-filename="C:\Users\undecV\icon16.png"
       inkscape:export-xdpi="12.000001"
       inkscape:export-ydpi="12.000001" />
    <path
       style="fill:#ffffff;fill-opacity:1;stroke-width:0.0707443"
       d="m 16.98299,12.665236 c 0.07051,-4.3334148 0.236159,-7.5781278 0.448472,-8.7846428 0.313693,-1.782609 1.192948,-2.88522005 2.627837,-3.29537605 2.714966,-0.77606299 6.840065,-0.78060499 10.534687,-0.01161 1.109065,0.230842 1.757385,0.72033605 2.257346,1.70435105 0.45112,0.887884 0.57556,1.477846 0.7176,3.402023 0.47081,6.3781178 0.36221,21.2507688 -0.17754,24.3126938 -0.28442,1.613447 -1.10493,2.76311 -2.269196,3.179473 -2.491073,0.890856 -7.419403,0.929681 -11.121463,0.08761 -1.417986,-0.322533 -2.370421,-1.644281 -2.625609,-3.643704 -0.203604,-1.595245 -0.316534,-4.120366 -0.394886,-8.829567 -0.06305,-3.789564 -0.06295,-4.083029 0.0028,-8.12126 z"
       id="path13331-7-6"
       inkscape:transform-center-x="-8.7044923"
       inkscape:transform-center-y="-4.6760749"
       inkscape:export-filename="C:\Users\undecV\icon16.png"
       inkscape:export-xdpi="12.000001"
       inkscape:export-ydpi="12.000001" />
    <g
       id="g28245"
       transform="translate(0.49609437,-0.06992566)"
       style="display:inline"
       inkscape:export-filename="C:\Users\undecV\icon16.png"
       inkscape:export-xdpi="12.000001"
       inkscape:export-ydpi="12.000001">
      <g
         aria-label="Y"
         transform="matrix(0.79482494,0,0,1.132326,12.876121,-23.298229)"
         id="text20033"
         style="font-size:25.2609px;line-height:1.25;font-family:'Noto Sans CJK TC';-inkscape-font-specification:'Noto Sans CJK TC';fill:#282828;stroke-width:0.631526">
        <path
           d="m -9.0108334,44.876553 h 3.7386133 V 38.030849 L 0.36096071,26.183486 H -3.529218 l -1.8693066,4.546962 c -0.5304789,1.38935 -1.0862187,2.702917 -1.6672194,4.142788 h -0.1010436 c -0.5810007,-1.439871 -1.0862188,-2.753438 -1.6166977,-4.142788 l -1.8693067,-4.546962 h -3.965961 l 5.6079196,11.847363 z"
           style="font-weight:bold;-inkscape-font-specification:'Noto Sans CJK TC Bold'"
           id="path27181" />
      </g>
      <g
         id="g28237"
         transform="translate(-2.3812532)">
        <path
           style="fill:#ff0000;fill-opacity:1;stroke-width:0.0630163"
           d="m 16.851481,13.598898 c 0.07161,-3.38548 0.239848,-5.9204121 0.45548,-6.8630021 0.318594,-1.392663 1.211586,-2.254078 2.668896,-2.574512 2.757385,-0.6063 6.946934,-0.609848 10.699284,-0.0091 1.126393,0.180346 1.784843,0.562763 2.292615,1.331525 0.458169,0.693659 0.584553,1.154567 0.728812,2.65783 0.478167,4.9829031 0.367871,16.6021631 -0.180314,18.9942921 -0.288863,1.260505 -1.122194,2.158679 -2.30465,2.483963 -2.529994,0.695981 -7.535327,0.726313 -11.29523,0.06845 -1.440141,-0.251978 -2.407457,-1.284594 -2.666632,-2.846643 -0.206785,-1.246286 -0.321479,-3.219037 -0.401056,-6.8981 -0.06403,-2.960597 -0.06393,-3.189867 0.0028,-6.344735 z"
           id="path13331"
           inkscape:transform-center-x="-8.8404924"
           inkscape:transform-center-y="-3.6532" />
        <g
           aria-label="C "
           transform="matrix(0.82229758,0,0,1.0260875,15.69394,-20.783775)"
           id="text20033-9"
           style="font-size:25.1813px;line-height:1.25;font-family:'Noto Sans CJK TC';-inkscape-font-specification:'Noto Sans CJK TC';fill:#ffffff;stroke-width:0.629535">
          <path
             d="m 12.939545,46.427795 c 2.417405,0 4.406728,-0.95689 5.942787,-2.744762 l -1.964141,-2.31668 c -1.007252,1.082796 -2.266317,1.838235 -3.852739,1.838235 -2.946212,0 -4.859991,-2.442586 -4.859991,-6.496775 0,-4.003827 2.115229,-6.421231 4.935535,-6.421231 1.410152,0 2.492948,0.654714 3.424656,1.56124 l 1.964142,-2.367042 c -1.208703,-1.259065 -3.0973,-2.392223 -5.464342,-2.392223 -4.7089032,0 -8.6623672,3.600926 -8.6623672,9.745163 0,6.21978 3.8275575,9.594075 8.5364602,9.594075 z"
             style="font-weight:bold;-inkscape-font-specification:'Noto Sans CJK TC Bold'"
             id="path27184" />
        </g>
      </g>
    </g>
  </g>
</svg>
